<svg id="svg" xmlns="http://www.w3.org/2000/svg" xmlns:xlink="http://www.w3.org/1999/xlink" width="400" height="398.4639016897081" viewBox="0, 0, 400,398.4639016897081"><g id="svgg"><path id="path0" d="M186.866 73.131 C 168.644 74.473,150.584 80.704,140.251 89.215 C 129.359 98.187,117.436 113.478,81.420 164.670 C 78.150 169.316,74.765 174.086,73.898 175.269 C 67.825 183.546,67.288 184.934,68.849 188.326 C 73.842 199.173,105.342 194.714,121.909 180.814 C 127.456 176.160,131.311 170.910,138.392 158.372 C 149.755 138.250,155.109 130.960,162.910 124.985 C 178.289 113.208,203.074 110.267,220.904 118.104 C 224.718 119.780,228.093 121.830,244.393 132.365 C 273.996 151.500,281.880 157.310,282.452 160.415 C 283.139 164.143,280.912 166.281,275.883 166.720 C 273.160 166.958,272.943 166.848,263.371 160.364 C 236.106 141.895,226.582 135.538,224.988 134.742 C 224.002 134.249,222.020 133.182,220.584 132.372 C 209.195 125.943,193.695 122.527,185.726 124.690 C 179.190 126.464,166.206 135.011,166.206 137.540 C 166.206 138.875,171.545 142.839,199.039 161.916 C 201.849 163.865,213.756 172.214,225.499 180.469 C 237.243 188.724,248.630 196.728,250.805 198.256 C 263.471 207.153,279.493 210.869,290.630 207.491 C 310.092 201.589,327.117 174.275,322.335 156.628 C 319.153 144.886,311.453 136.334,288.786 119.364 C 283.802 115.633,276.889 110.361,273.425 107.650 C 254.725 93.014,241.144 84.455,228.418 79.284 C 227.066 78.735,225.829 78.160,225.668 78.006 C 225.508 77.852,225.080 77.727,224.718 77.727 C 224.356 77.727,223.243 77.445,222.245 77.100 C 213.019 73.915,198.440 72.279,186.866 73.131 M100.614 204.745 C 74.568 210.977,61.507 235.603,71.298 260.020 C 77.579 275.683,90.903 288.066,119.201 304.539 C 122.665 306.556,125.686 308.358,125.914 308.544 C 126.143 308.730,126.488 308.912,126.682 308.949 C 126.876 308.985,129.593 310.420,132.719 312.138 C 152.891 323.219,159.427 326.150,174.463 330.854 C 202.942 339.765,224.293 337.592,248.061 323.365 C 263.956 313.851,271.894 305.121,286.629 280.952 C 292.977 270.540,296.391 265.258,301.224 258.372 C 314.362 239.651,316.983 235.344,318.782 229.509 C 320.118 225.178,319.345 221.455,316.798 219.951 C 306.794 214.043,283.840 216.557,271.734 224.886 C 266.496 228.490,263.570 232.460,254.529 248.233 C 234.188 283.719,223.425 295.670,208.141 299.741 C 192.909 303.797,176.606 297.376,139.478 272.695 C 133.648 268.820,126.459 264.128,123.502 262.268 C 107.895 252.450,105.899 250.341,107.383 245.235 C 109.220 238.917,114.237 239.434,124.902 247.039 C 129.190 250.097,131.804 251.758,141.782 257.767 C 145.330 259.904,150.860 263.417,154.071 265.575 C 157.281 267.733,160.184 269.606,160.522 269.738 C 160.860 269.870,163.446 271.341,166.269 273.007 C 176.195 278.867,179.743 280.640,184.639 282.192 C 188.706 283.481,195.467 285.159,198.204 285.560 C 199.666 285.774,201.004 286.036,201.177 286.143 C 202.418 286.910,215.603 284.931,220.737 283.206 C 230.535 279.916,232.449 276.256,227.223 270.802 C 223.939 267.374,180.445 237.737,160.676 225.456 C 131.922 207.595,114.219 201.490,100.614 204.745 " stroke="none" fill="#040404" fill-rule="evenodd"></path><path id="path1" d="M0.000 199.232 L 0.000 398.464 200.000 398.464 L 400.000 398.464 400.000 199.232 L 400.000 0.000 200.000 0.000 L 0.000 0.000 0.000 199.232 M208.141 73.720 C 214.161 74.634,223.231 76.873,226.267 78.196 C 226.774 78.416,228.986 79.378,231.183 80.332 C 243.128 85.520,255.875 93.727,273.886 107.826 C 280.798 113.236,283.126 115.009,291.613 121.320 C 310.608 135.445,319.277 145.207,322.336 155.914 C 327.968 175.628,307.692 205.311,286.329 208.628 C 276.633 210.133,261.691 206.030,251.850 199.160 C 249.945 197.830,240.023 190.864,229.800 183.678 C 209.212 169.207,199.778 162.585,181.106 149.496 C 164.908 138.141,164.749 137.980,167.330 135.577 C 180.220 123.572,191.305 121.211,207.907 126.931 C 219.878 131.056,222.611 132.629,249.816 151.041 C 273.372 166.983,273.414 167.008,276.161 166.665 C 280.968 166.064,282.627 164.397,282.380 160.419 C 282.210 157.696,273.126 151.038,243.472 131.901 C 226.823 121.157,224.425 119.723,219.916 117.812 C 203.837 110.997,180.415 113.304,165.712 123.150 C 156.477 129.334,151.261 136.016,139.415 156.836 C 126.237 179.997,120.454 185.249,101.059 191.668 C 81.952 197.992,64.434 193.185,68.742 182.801 C 69.189 181.724,79.182 167.449,95.167 145.051 C 128.661 98.122,136.625 89.251,151.920 81.841 C 167.499 74.293,190.259 71.005,208.141 73.720 M183.911 181.130 C 186.305 181.488,190.776 185.347,194.673 190.417 C 197.964 194.698,197.565 194.679,200.280 190.691 C 205.895 182.441,208.694 180.412,214.021 180.731 C 219.937 181.084,225.900 187.334,227.938 195.316 C 230.120 203.865,227.088 210.468,216.411 220.421 C 214.059 222.613,209.329 227.176,205.899 230.560 C 199.517 236.857,198.295 237.752,196.832 237.196 C 196.019 236.887,177.706 218.212,174.516 214.439 C 168.212 206.983,166.235 201.437,167.700 195.320 C 169.322 188.548,174.395 182.371,179.395 181.082 C 180.699 180.745,181.394 180.753,183.911 181.130 M112.289 204.003 C 121.097 204.994,133.001 209.430,145.432 216.352 C 146.973 217.210,148.925 218.261,149.770 218.686 C 150.614 219.112,152.965 220.491,154.992 221.750 C 157.020 223.009,161.029 225.501,163.902 227.287 C 175.131 234.268,191.115 244.994,213.364 260.476 C 228.371 270.919,229.600 272.005,230.237 275.401 C 230.945 279.178,225.147 282.738,214.692 284.945 C 204.669 287.062,197.670 286.744,187.865 283.729 C 180.273 281.395,177.654 280.135,165.384 272.914 C 162.988 271.505,160.776 270.262,160.468 270.152 C 160.160 270.042,159.268 269.502,158.486 268.951 C 157.704 268.401,155.837 267.299,154.338 266.504 C 152.839 265.708,149.332 263.521,146.544 261.644 C 139.116 256.644,136.588 254.987,133.333 252.989 C 131.728 252.003,129.171 250.280,127.650 249.159 C 115.151 239.950,110.389 238.806,107.802 244.393 C 105.402 249.578,107.805 252.262,123.878 262.350 C 125.615 263.440,131.943 267.573,137.942 271.534 C 174.328 295.563,188.149 301.715,202.871 300.437 C 220.249 298.928,232.815 286.163,254.490 248.000 C 264.671 230.075,267.945 226.247,276.967 221.726 C 289.341 215.527,313.281 214.975,317.972 220.781 C 322.232 226.054,318.926 233.691,302.164 257.296 C 296.721 264.963,294.005 269.132,287.542 279.750 C 277.001 297.065,273.412 302.008,265.903 309.552 C 247.463 328.079,221.288 338.383,198.378 336.133 C 184.290 334.749,162.964 328.202,149.002 320.973 C 141.810 317.251,127.723 309.675,127.358 309.335 C 127.197 309.185,126.874 309.063,126.638 309.063 C 126.403 309.063,125.843 308.776,125.394 308.424 C 124.945 308.073,122.020 306.305,118.894 304.495 C 83.753 284.149,69.065 267.165,67.982 245.622 C 66.778 221.678,88.451 201.321,112.289 204.003 " stroke="none" fill="#fbfbfb00" fill-rule="evenodd"></path><path id="path2" d="M209.370 181.594 C 206.233 182.946,203.872 185.433,199.544 191.940 C 197.783 194.589,197.737 194.581,195.177 191.170 C 187.348 180.745,181.086 178.461,174.790 183.733 C 168.540 188.965,165.810 198.241,168.524 205.021 C 170.657 210.348,173.638 213.924,187.979 228.365 L 196.774 237.221 197.974 237.067 C 199.278 236.899,198.651 237.452,209.524 226.862 C 212.481 223.982,215.992 220.665,217.327 219.492 C 227.519 210.531,230.870 200.324,226.499 191.551 C 222.027 182.575,215.669 178.879,209.370 181.594 " stroke="none" fill="#f20d0d" fill-rule="evenodd"></path><path id="path3" d="M309.370 136.252 C 310.288 137.181,311.108 137.942,311.193 137.942 C 311.277 137.942,310.595 137.181,309.677 136.252 C 308.760 135.323,307.940 134.562,307.855 134.562 C 307.771 134.562,308.452 135.323,309.370 136.252 M279.263 156.471 C 279.263 156.524,279.712 156.973,280.261 157.469 L 281.260 158.372 280.357 157.373 C 279.516 156.443,279.263 156.234,279.263 156.471 M205.530 183.871 C 204.784 184.631,204.242 185.253,204.327 185.253 C 204.411 185.253,205.091 184.631,205.837 183.871 C 206.583 183.111,207.125 182.488,207.040 182.488 C 206.956 182.488,206.276 183.111,205.530 183.871 M189.555 184.735 C 189.555 184.788,190.004 185.237,190.553 185.734 L 191.551 186.636 190.649 185.637 C 189.808 184.707,189.555 184.498,189.555 184.735 M167.215 198.618 C 167.218 199.462,167.277 199.772,167.348 199.305 C 167.419 198.838,167.417 198.146,167.344 197.768 C 167.271 197.391,167.213 197.773,167.215 198.618 M228.335 202.458 C 228.335 203.049,228.399 203.291,228.476 202.995 C 228.553 202.700,228.553 202.216,228.476 201.920 C 228.399 201.624,228.335 201.866,228.335 202.458 M106.691 203.913 C 107.499 203.976,108.743 203.976,109.456 203.911 C 110.169 203.847,109.508 203.795,107.988 203.796 C 106.467 203.797,105.884 203.849,106.691 203.913 M225.402 209.860 C 224.790 210.891,224.470 211.584,224.689 211.402 C 225.107 211.055,226.860 207.988,226.640 207.988 C 226.570 207.988,226.013 208.830,225.402 209.860 M176.344 216.686 C 176.344 216.739,176.793 217.188,177.343 217.684 L 178.341 218.587 177.439 217.588 C 176.598 216.658,176.344 216.449,176.344 216.686 M213.350 223.118 L 212.135 224.424 213.441 223.210 C 214.655 222.080,214.888 221.813,214.655 221.813 C 214.605 221.813,214.018 222.400,213.350 223.118 M190.630 231.336 C 192.991 233.702,194.992 235.637,195.076 235.637 C 195.161 235.637,193.298 233.702,190.937 231.336 C 188.576 228.971,186.575 227.035,186.491 227.035 C 186.406 227.035,188.269 228.971,190.630 231.336 M201.683 234.485 L 199.232 237.020 201.767 234.569 C 204.121 232.293,204.441 231.951,204.217 231.951 C 204.171 231.951,203.030 233.091,201.683 234.485 M140.707 257.599 C 140.707 258.051,154.565 266.951,155.295 266.967 C 155.461 266.971,154.701 266.445,153.605 265.798 C 152.509 265.151,149.747 263.377,147.465 261.856 C 145.184 260.335,142.869 258.830,142.320 258.511 C 141.770 258.193,141.321 257.824,141.321 257.691 C 141.321 257.559,141.183 257.450,141.014 257.450 C 140.845 257.450,140.707 257.517,140.707 257.599 M157.296 268.007 C 157.296 268.092,157.711 268.456,158.218 268.817 C 158.725 269.178,159.140 269.404,159.140 269.320 C 159.140 269.235,158.725 268.871,158.218 268.510 C 157.711 268.149,157.296 267.923,157.296 268.007 M168.049 274.485 C 168.049 274.569,168.464 274.853,168.971 275.115 C 169.478 275.377,169.892 275.523,169.892 275.438 C 169.892 275.354,169.478 275.070,168.971 274.808 C 168.464 274.546,168.049 274.401,168.049 274.485 M180.645 281.260 C 181.068 281.501,181.551 281.699,181.720 281.699 C 181.889 281.699,181.682 281.501,181.260 281.260 C 180.837 281.018,180.353 280.821,180.184 280.821 C 180.015 280.821,180.223 281.018,180.645 281.260 M187.711 283.729 C 189.730 284.407,193.002 285.199,195.392 285.590 C 196.440 285.761,193.742 284.986,190.015 284.046 C 185.558 282.921,185.128 282.862,187.711 283.729 M197.389 286.023 C 198.631 286.296,200.825 286.427,200.589 286.213 C 200.518 286.149,199.493 286.020,198.310 285.925 C 196.658 285.792,196.444 285.815,197.389 286.023 " stroke="none" fill="#989898" fill-rule="evenodd"></path><path id="path4" d="M189.017 73.023 C 189.313 73.100,189.796 73.100,190.092 73.023 C 190.388 72.946,190.146 72.882,189.555 72.882 C 188.963 72.882,188.721 72.946,189.017 73.023 M198.391 73.028 C 198.773 73.102,199.326 73.099,199.620 73.022 C 199.913 72.945,199.601 72.885,198.925 72.889 C 198.249 72.892,198.009 72.955,198.391 73.028 M135.623 93.164 L 134.409 94.470 135.714 93.256 C 136.929 92.126,137.161 91.859,136.929 91.859 C 136.879 91.859,136.291 92.446,135.623 93.164 M195.776 113.883 C 196.071 113.960,196.555 113.960,196.851 113.883 C 197.147 113.806,196.905 113.743,196.313 113.743 C 195.722 113.743,195.480 113.806,195.776 113.883 M198.694 113.894 C 199.243 113.962,200.142 113.962,200.691 113.894 C 201.240 113.825,200.791 113.770,199.693 113.770 C 198.594 113.770,198.145 113.825,198.694 113.894 M79.095 216.359 L 77.880 217.665 79.186 216.451 C 80.400 215.321,80.633 215.054,80.400 215.054 C 80.350 215.054,79.763 215.641,79.095 216.359 M141.321 257.691 C 141.321 257.824,141.770 258.194,142.320 258.514 C 142.869 258.833,145.668 260.638,148.541 262.524 C 152.982 265.440,157.817 268.359,157.296 267.809 C 156.319 266.778,141.321 257.279,141.321 257.691 M165.284 272.642 C 165.284 272.726,165.699 273.010,166.206 273.272 C 166.713 273.534,167.127 273.679,167.127 273.595 C 167.127 273.510,166.713 273.227,166.206 272.965 C 165.699 272.703,165.284 272.557,165.284 272.642 M179.109 280.338 C 179.531 280.579,180.015 280.777,180.184 280.777 C 180.353 280.777,180.146 280.579,179.724 280.338 C 179.301 280.096,178.817 279.899,178.648 279.899 C 178.479 279.899,178.687 280.096,179.109 280.338 M85.714 280.895 C 85.714 280.948,86.164 281.397,86.713 281.893 L 87.711 282.796 86.809 281.797 C 85.968 280.867,85.714 280.658,85.714 280.895 M181.260 281.260 C 181.682 281.501,182.166 281.699,182.335 281.699 C 182.504 281.699,182.296 281.501,181.874 281.260 C 181.452 281.018,180.968 280.821,180.799 280.821 C 180.630 280.821,180.837 281.018,181.260 281.260 M183.871 282.230 C 185.689 282.920,190.812 284.384,192.275 284.631 C 194.710 285.043,193.528 284.534,190.201 283.739 C 188.360 283.298,186.057 282.664,185.084 282.329 C 183.025 281.621,182.058 281.542,183.871 282.230 M194.316 285.100 C 194.654 285.245,195.138 285.364,195.392 285.364 C 195.682 285.364,195.625 285.266,195.238 285.100 C 194.900 284.955,194.416 284.836,194.163 284.836 C 193.872 284.836,193.929 284.933,194.316 285.100 M197.235 285.730 C 197.995 285.865,199.032 285.969,199.539 285.960 C 200.219 285.949,200.098 285.880,199.078 285.699 C 198.318 285.563,197.281 285.460,196.774 285.468 C 196.094 285.480,196.215 285.549,197.235 285.730 M227.179 287.942 L 225.346 289.862 227.266 288.028 C 228.322 287.020,229.186 286.155,229.186 286.108 C 229.186 285.881,228.883 286.158,227.179 287.942 M263.114 312.212 L 262.212 313.210 263.210 312.308 C 263.760 311.812,264.209 311.363,264.209 311.310 C 264.209 311.072,263.955 311.281,263.114 312.212 " stroke="none" fill="#747474" fill-rule="evenodd"></path></g></svg>